<?xml version="1.0" encoding="UTF-8" standalone="no"?>
<!-- Created with Inkscape (http://www.inkscape.org/) -->

<svg
   width="2560"
   height="1440"
   viewBox="0 0 2560 1440"
   version="1.1"
   id="svg1"
   xml:space="preserve"
   inkscape:version="1.4.3 (0d15f75, 2025-12-25)"
   sodipodi:docname="pencil.svg"
   xmlns:inkscape="http://www.inkscape.org/namespaces/inkscape"
   xmlns:sodipodi="http://sodipodi.sourceforge.net/DTD/sodipodi-0.dtd"
   xmlns="http://www.w3.org/2000/svg"
   xmlns:svg="http://www.w3.org/2000/svg"><sodipodi:namedview
     id="namedview1"
     pagecolor="#ffffff"
     bordercolor="#000000"
     borderopacity="0.25"
     inkscape:showpageshadow="2"
     inkscape:pageopacity="0.0"
     inkscape:pagecheckerboard="0"
     inkscape:deskcolor="#d1d1d1"
     inkscape:document-units="px"
     inkscape:zoom="0.75001447"
     inkscape:cx="785.31819"
     inkscape:cy="901.9826"
     inkscape:window-width="1440"
     inkscape:window-height="740"
     inkscape:window-x="0"
     inkscape:window-y="30"
     inkscape:window-maximized="0"
     inkscape:current-layer="layer2" /><defs
     id="defs1" /><g
     inkscape:label="Layer 1"
     inkscape:groupmode="layer"
     id="layer1"><path
       style="fill:#000000;fill-opacity:0;stroke:#000000;stroke-width:10;stroke-linejoin:round"
       d="m 2278.0321,670.58325 c 86.5052,6.71167 81.3674,-109.955 0,-103.09532 L 453.24486,572.6427 c -137.63139,20.63046 -182.8745,35.10171 -219.07756,48.97028 67.74998,33.86929 145.07101,39.02545 219.07756,54.12504 z"
       id="path1"
       sodipodi:nodetypes="cccccc" /><path
       style="fill:#000000;fill-opacity:0;stroke:#000000;stroke-width:10;stroke-linejoin:round"
       d="m 344.2595,590.99844 -0.68896,62.69545"
       id="path2" /><rect
       style="fill:#000000;fill-opacity:0;stroke:#000000;stroke-width:9.72339;stroke-linejoin:round"
       id="rect4"
       width="136.41718"
       height="44.531116"
       x="571.03906"
       y="600.63928"
       ry="22.265558" /><path
       style="fill:#000000;fill-opacity:0;stroke:#000000;stroke-width:10;stroke-linejoin:round"
       d="m 2332.2523,594.42433 c -13.8764,22.00924 -6.5641,35.18981 1.3942,48.10127 v 0"
       id="path4"
       sodipodi:nodetypes="ccc" /><rect
       style="fill:#000000;fill-opacity:0;stroke:#000000;stroke-width:7.89199;stroke-linejoin:round"
       id="rect4-2"
       width="86.318268"
       height="46.362522"
       x="2115.603"
       y="597.98425"
       ry="23.181261" /><rect
       style="fill:#000000;fill-opacity:0;stroke:#000000;stroke-width:7.89199;stroke-linejoin:round"
       id="rect4-2-8"
       width="86.318268"
       height="46.362522"
       x="1937.7533"
       y="598.58765"
       ry="23.181261" /><rect
       style="fill:#000000;fill-opacity:0;stroke:#000000;stroke-width:6.77981;stroke-linejoin:round"
       id="rect4-2-1"
       width="62.211483"
       height="47.474693"
       x="2039.3267"
       y="597.78296"
       ry="23.737347" /><g
       id="g5"
       transform="translate(2154.1351,415.18368)" /><g
       stroke="none"
       stroke-width="1"
       fill="none"
       fill-rule="evenodd"
       id="g1"
       transform="rotate(90,802.99101,1412.3967)"
       style="stroke-width:25.7;stroke-dasharray:none"><rect
         x="0"
         y="0"
         width="24"
         height="24"
         id="rect1"
         style="stroke-width:25.7;stroke-dasharray:none" /><path
         d="m 12.844185,262.57543 -9.8850418,-9.85866 c -0.614265,-0.61262 -1.608856,-0.61128 -2.22148125,0.003 -0.6126252,0.61428 -0.611296,1.60886 0.00297,2.2215 L 11.736413,265.90769 c 0.613684,0.61204 1.607132,0.61138 2.219998,-10e-4 l 10.99578,-10.99578 c 0.613446,-0.61344 0.613446,-1.60803 0,-2.22148 -0.613446,-0.61344 -1.608038,-0.61344 -2.221483,0 z"
         fill="#000000"
         fill-rule="nonzero"
         id="path1-7"
         style="stroke-width:40.3702;stroke-dasharray:none" /><path
         d="m 11.537916,27.923414 -9.8850424,9.85866 c -0.614265,0.61262 -1.60885597,0.61128 -2.22148097,-0.003 -0.61262503,-0.61428 -0.61129603,-1.60886 0.003,-2.2215 L 10.430174,24.591154 c 0.613684,-0.61204 1.607132,-0.61138 2.219998,0.001 l 10.99578,10.99578 c 0.613446,0.61344 0.613446,1.60803 0,2.22148 -0.613446,0.61344 -1.608038,0.61344 -2.221483,0 z"
         fill="#000000"
         fill-rule="nonzero"
         id="path1-7-1"
         style="stroke-width:40.3702;stroke-dasharray:none" /></g></g><g
     inkscape:groupmode="layer"
     id="layer2"
     inkscape:label="Layer 2"><path
       style="fill:#000000;fill-opacity:0;stroke:#000000;stroke-width:10;stroke-linejoin:round"
       d="m 2280.125,947.13958 c 86.5052,6.7117 81.3674,-109.95495 0,-103.09527 l -1824.78727,5.15477 c -137.63139,20.63046 -182.8745,35.10171 -219.07756,48.9703 67.74998,33.8693 145.07101,39.0254 219.07756,54.125 z"
       id="path1-2"
       sodipodi:nodetypes="cccccc" /><path
       style="fill:#000000;fill-opacity:0;stroke:#000000;stroke-width:10;stroke-linejoin:round"
       d="m 346.35237,867.55482 -0.68896,62.69546"
       id="path2-0" /><path
       style="fill:#000000;fill-opacity:0;stroke:#000000;stroke-width:10;stroke-linejoin:round"
       d="m 2334.3451,870.98071 c -13.8764,22.00927 -6.5641,35.18977 1.3943,48.10127 v 0"
       id="path4-7"
       sodipodi:nodetypes="ccc" /><g
       id="g5-3"
       transform="translate(2148.8704,802.10388)" /><g
       id="g4"
       transform="matrix(-1.4496045,0,0,-1.4496045,2207.1256,971.2776)"><path
         d="M 81,64.67 H 19 a 12,12 0 0 1 -12,-12 v -5.34 a 12,12 0 0 1 12,-12 h 62 a 12,12 0 0 1 12,12 v 5.34 a 12,12 0 0 1 -12,12 z M 19,39.33 a 8,8 0 0 0 -8,8 v 5.34 a 8,8 0 0 0 8,8 h 62 a 8,8 0 0 0 8,-8 v -5.34 a 8,8 0 0 0 -8,-8 z"
         id="path1-3" /><path
         d="m 23.83,52.5 h 52.34 c 3.21,0 3.22,-5 0,-5 H 23.83 c -3.21,0 -3.22,5 0,5 z"
         id="path2-1" /></g><text
       xml:space="preserve"
       style="font-style:normal;font-variant:normal;font-weight:bold;font-stretch:normal;font-size:87.5541px;font-family:'DIN Alternate';-inkscape-font-specification:'DIN Alternate, Bold';font-variant-ligatures:normal;font-variant-caps:normal;font-variant-numeric:normal;font-variant-east-asian:normal;writing-mode:lr-tb;direction:ltr;fill:#000000;fill-opacity:1;stroke:#000000;stroke-width:0;stroke-linejoin:round;stroke-dasharray:none"
       x="572.13947"
       y="932.78192"
       id="text5"><tspan
         sodipodi:role="line"
         id="tspan5"
         x="572.13947"
         y="932.78192"
         style="font-style:normal;font-variant:normal;font-weight:bold;font-stretch:normal;font-size:87.5541px;font-family:'DIN Alternate';-inkscape-font-specification:'DIN Alternate, Bold';font-variant-ligatures:normal;font-variant-caps:normal;font-variant-numeric:normal;font-variant-east-asian:normal;stroke-width:0">100%</tspan><tspan
         sodipodi:role="line"
         x="572.13947"
         y="1042.2245"
         id="tspan6"
         style="font-style:normal;font-variant:normal;font-weight:bold;font-stretch:normal;font-size:87.5541px;font-family:'DIN Alternate';-inkscape-font-specification:'DIN Alternate, Bold';font-variant-ligatures:normal;font-variant-caps:normal;font-variant-numeric:normal;font-variant-east-asian:normal;stroke-width:0" /></text></g></svg>
